<?xml version="1.0" ?><svg id="Layer_1" style="enable-background:new 0 0 24 24;" version="1.1" viewBox="0 0 24 24" xml:space="preserve" xmlns="http://www.w3.org/2000/svg" xmlns:xlink="http://www.w3.org/1999/xlink"><title/><g id="Santa_Bag_1"><g><path d="M18.5,16c0-4.63-0.94-7.34-4-8.2l0,0c0-1.19,2-4.52,2-5.8c0.057-0.771-0.521-1.443-1.292-1.5    c-0.069-0.005-0.139-0.005-0.208,0c-1.33,0-0.77,1-1.5,1s-0.6-1-2-1s-2,2-2,2s-2-0.15-2,1s2,3.13,2,4.3l0,0    c-3.06,0.86-4,3.57-4,8.2c0,0-2,2.92-2,5s5.31,2.5,8.5,2.5s8.5-0.42,8.5-2.5S18.5,16,18.5,16z" style="fill:#D51C29;"/><g><path d="M7.12,21c0.132-1.715,0.519-3.4,1.15-5     c0-4.63,0.54-7.34,2.3-8.2l0,0c0-1.17-1.15-3.24-1.15-4.3c-0.006-0.552,0.436-1.005,0.989-1.011     c0.054-0.001,0.108,0.003,0.161,0.011c0,0,0.34-1.9,1.1-2h-0.16c-1.4,0-2,2-2,2s-2-0.15-2,1s2,3.13,2,4.3l0,0     c-3.06,0.86-4,3.57-4,8.2c0,0-2,2.92-2,5s5.31,2.5,8.5,2.5C10.17,23.5,7.12,23.08,7.12,21z" style="opacity:0.2;fill:#FFFFFF;enable-background:new    ;"/><path d="M18.5,16c0-4.63-0.94-7.34-4-8.2l0,0c0-1.19,2-4.52,2-5.8     c0.057-0.771-0.521-1.443-1.292-1.5c-0.069-0.005-0.139-0.005-0.208,0c-0.277-0.025-0.552,0.057-0.77,0.23     c0.254,0.373,0.38,0.819,0.36,1.27c0,1.28-1.15,4.61-1.15,5.8l0,0c1.76,0.86,2.3,3.57,2.3,8.2c0.631,1.6,1.018,3.285,1.15,5     c0,2.08-3.05,2.5-4.89,2.5c3.19,0,8.5-0.42,8.5-2.5S18.5,16,18.5,16z" style="opacity:0.1;enable-background:new    ;"/></g><path d="M19,15.85c0-4.2-0.79-7.27-3.95-8.39c0.225-0.773,0.506-1.528,0.84-2.26    C16.434,4.202,16.809,3.121,17,2c0.069-1.036-0.716-1.931-1.752-2C15.166-0.005,15.083-0.005,15,0    c-0.653-0.092-1.28,0.295-1.49,0.92c-0.003,0.027-0.003,0.053,0,0.08c-0.05,0-0.09,0-0.25-0.21C12.848,0.242,12.183-0.056,11.5,0    c-1.34,0-2.06,1.33-2.34,2C8.535,1.982,7.922,2.176,7.42,2.55c-0.279,0.256-0.429,0.622-0.41,1c0.14,0.843,0.483,1.639,1,2.32    c0.348,0.501,0.643,1.037,0.88,1.6C5.79,8.59,5.02,11.66,5,15.85C4.6,16.46,3,19.02,3,21c0,2.61,5.64,3,9,3s9-0.39,9-3    C21,19,19.4,16.46,19,15.85z M8.89,5.29C8.485,4.753,8.184,4.147,8,3.5C7.994,3.417,8.028,3.335,8.09,3.28    C8.51,3.046,8.992,2.948,9.47,3C9.7,3.015,9.911,2.87,9.98,2.65c0,0,0.54-1.65,1.52-1.65c0.39-0.043,0.773,0.129,1,0.45    c0.23,0.329,0.599,0.532,1,0.55c0.429-0.005,0.807-0.282,0.94-0.69C14.53,1.09,14.57,1,15,1c0.494-0.059,0.941,0.294,1,0.787    C16.008,1.858,16.008,1.929,16,2c-0.202,0.975-0.538,1.918-1,2.8c-0.371,0.775-0.682,1.577-0.93,2.4    C13.388,7.065,12.695,6.998,12,7c-0.708-0.005-1.415,0.062-2.11,0.2C9.635,6.525,9.299,5.884,8.89,5.29z M12,23    c-4.71,0-8-0.82-8-2c0-1.9,1.89-4.69,1.89-4.72C5.955,16.2,5.993,16.102,6,16c0-5.91,1.57-8,6-8s6,2.09,6,8    c0.001,0.1,0.033,0.198,0.09,0.28c0,0,1.91,2.81,1.91,4.72C20,22.18,16.71,23,12,23z" style="fill:#303C42;"/><path d="M14.71,15.72l-0.67,0.45l-1.15-0.67l1.15-0.66l0.67,0.45c0.215,0.173,0.53,0.139,0.703-0.076    s0.139-0.53-0.076-0.703c-0.024-0.019-0.05-0.037-0.077-0.051L14.54,14l-0.05-0.87c-0.01-0.27-0.238-0.481-0.508-0.471    c-0.007,0-0.015,0.001-0.022,0.001c-0.276,0.016-0.486,0.253-0.47,0.528c0,0.001,0,0.001,0,0.002V14l-1.15,0.66v-1.35l0.72-0.36    c0.237-0.142,0.313-0.45,0.171-0.686c-0.128-0.212-0.392-0.299-0.621-0.204l-0.78,0.39l-0.78-0.39    c-0.255-0.106-0.548,0.014-0.654,0.269c-0.095,0.229-0.009,0.493,0.204,0.621l0.72,0.36v1.32L10.24,14v-0.81    c0.017-0.276-0.193-0.513-0.468-0.53c-0.001,0-0.001,0-0.002,0c-0.27-0.022-0.506,0.178-0.529,0.448    C9.241,13.115,9.24,13.123,9.24,13.13V14l-0.72,0.48c-0.243,0.131-0.335,0.434-0.204,0.677s0.434,0.335,0.677,0.204    c0.027-0.015,0.053-0.032,0.077-0.051l0.67-0.45l1.15,0.64l-1.15,0.66l-0.67-0.45c-0.215-0.173-0.53-0.139-0.703,0.076    c-0.173,0.215-0.139,0.53,0.076,0.703c0.024,0.019,0.05,0.037,0.077,0.051l0.72,0.48l0.05,0.87c0.016,0.264,0.235,0.47,0.5,0.47    l0,0c0.276-0.016,0.486-0.253,0.47-0.528c0-0.001,0-0.001,0-0.002v-0.81l1.15-0.66v1.32l-0.72,0.36    c-0.237,0.142-0.313,0.45-0.171,0.686c0.128,0.212,0.392,0.299,0.621,0.204l0.78-0.39l0.78,0.39    c0.255,0.106,0.548-0.014,0.654-0.269c0.095-0.229,0.009-0.493-0.204-0.621l-0.72-0.36v-1.31l1.15,0.66v0.81    c-0.017,0.276,0.193,0.513,0.468,0.53c0.001,0,0.001,0,0.002,0l0,0c0.265,0,0.484-0.206,0.5-0.47l0.05-0.87l0.72-0.48    c0.243-0.131,0.335-0.434,0.204-0.677c-0.131-0.243-0.434-0.335-0.677-0.204c-0.027,0.015-0.053,0.032-0.077,0.051L14.71,15.72z" style="fill:#E4E5E6;"/><linearGradient gradientTransform="matrix(1 0 0 -1 0 24)" gradientUnits="userSpaceOnUse" id="SVGID_1_" x1="4.3892" x2="22.8408" y1="15.1801" y2="6.5741"><stop offset="0" style="stop-color:#FFFFFF;stop-opacity:0.2"/><stop offset="1" style="stop-color:#FFFFFF;stop-opacity:0"/></linearGradient><path d="M19,15.85c0-4.2-0.79-7.27-3.95-8.39c0.225-0.773,0.506-1.528,0.84-2.26    C16.434,4.202,16.809,3.121,17,2c0.069-1.036-0.716-1.931-1.752-2C15.166-0.005,15.083-0.005,15,0    c-0.653-0.092-1.28,0.295-1.49,0.92c-0.003,0.027-0.003,0.053,0,0.08c-0.05,0-0.09,0-0.25-0.21C12.848,0.242,12.183-0.056,11.5,0    c-1.34,0-2.06,1.33-2.34,2C8.535,1.982,7.922,2.176,7.42,2.55c-0.279,0.256-0.429,0.622-0.41,1c0.14,0.843,0.483,1.639,1,2.32    c0.348,0.501,0.643,1.037,0.88,1.6C5.79,8.59,5.02,11.66,5,15.85C4.6,16.46,3,19.02,3,21c0,2.61,5.64,3,9,3s9-0.39,9-3    C21,19,19.4,16.46,19,15.85z" style="fill:url(#SVGID_1_);"/></g></g></svg>